<?xml version="1.0" encoding="UTF-8"?>
<svg id="Layer_1" data-name="Layer 1" xmlns="http://www.w3.org/2000/svg" viewBox="0 0 85.84 66.54">
  <defs>
    <style>
      .cls-1 {
        fill: #1d245a;
      }

      .cls-1, .cls-2 {
        stroke-width: 0px;
      }

      .cls-2 {
        fill: #fff;
      }
    </style>
  </defs>
  <g>
    <path class="cls-2" d="M67.79,26.71c0-13.73-11.13-24.87-24.87-24.87s-24.87,11.13-24.87,24.87,11.13,24.87,24.87,24.87,24.87-11.13,24.87-24.87ZM42.92,42.67c-8.81,0-15.95-7.14-15.95-15.95s7.14-15.96,15.95-15.96,15.96,7.14,15.96,15.96-7.14,15.95-15.96,15.95Z"/>
    <path class="cls-2" d="M42.92,41.8c8.33,0,15.09-6.76,15.09-15.09s-6.76-15.09-15.09-15.09-15.09,6.75-15.09,15.09,6.76,15.09,15.09,15.09Z"/>
    <g>
      <path class="cls-2" d="M44.09,0l-.89,1.39,1.67.07L44.09,0ZM67.6,21.04l1.17-1.17-1.6-.44.43,1.61ZM66.49,17.44l.98-1.33-1.65-.2.66,1.53ZM67.11,19.22l1.08-1.26-1.63-.32.54,1.58ZM65.73,15.71l.88-1.4-1.66-.07.78,1.48ZM63.84,12.45l.66-1.52-1.65.17.99,1.35ZM64.85,14.05l.77-1.46-1.66.05.88,1.41ZM68.17,28.55l1.46-.78-1.4-.89-.06,1.67ZM68.24,26.65l1.4-.88-1.46-.79.06,1.67ZM68.17,24.77l1.34-.98-1.52-.67.18,1.66ZM67.95,22.9l1.26-1.08-1.56-.56.31,1.64ZM51.92,1.53l-1.27,1.07,1.57.56-.3-1.63ZM62.72,10.93l.55-1.56-1.63.29,1.08,1.27ZM53.77,2.27l-1.34.97,1.52.68-.18-1.65ZM48.07.47l-1.09,1.24,1.63.32-.54-1.56ZM50.02.93l-1.18,1.16,1.61.44-.42-1.6ZM55.56,3.15l-1.41.87,1.47.79-.06-1.65ZM46.08.16l-1,1.32,1.66.2-.66-1.52ZM61.49,9.5l.43-1.6-1.61.41,1.18,1.18ZM60.16,8.17l.31-1.62-1.57.53,1.26,1.09ZM58.92,5.29l-1.52.65,1.33,1,.19-1.65ZM57.28,4.16l-1.47.76,1.41.9.07-1.65ZM67.62,32.3l1.56-.55-1.25-1.09-.31,1.64ZM55.43,50.35l.07-1.65-1.47.78,1.41.87ZM51.78,51.95l.31-1.63-1.57.55,1.26,1.07ZM53.63,51.22l.19-1.65-1.53.67,1.34.98ZM55.68,48.59l1.47.77-.06-1.65-1.41.89ZM57.28,47.58l1.52.66-.18-1.65-1.34.99ZM49.88,52.54l.43-1.6-1.61.43,1.18,1.17ZM43.98,53.43l.78-1.46-1.66.07.88,1.4ZM47.93,52.99l.55-1.56-1.64.31,1.08,1.25ZM58.79,46.45l1.57.54-.3-1.63-1.26,1.09ZM45.96,53.28l.67-1.52-1.66.19.99,1.33ZM67.13,34.14l1.6-.43-1.16-1.18-.44,1.61ZM66.51,35.92l1.63-.31-1.07-1.26-.56,1.57ZM65.77,37.65l1.64-.19-.97-1.34-.67,1.53ZM60.21,45.21l1.6.42-.42-1.6-1.18,1.18ZM67.97,30.43l1.51-.67-1.33-.99-.19,1.66ZM64.89,39.32l1.65-.06-.87-1.41-.78,1.47ZM62.77,42.44l1.65.18-.65-1.52-.99,1.34ZM61.54,43.87l1.63.31-.54-1.57-1.09,1.26ZM63.88,40.92l1.65.06-.76-1.47-.89,1.41Z"/>
      <path class="cls-2" d="M32.17,2.23l-.19,1.65,1.53-.67-1.34-.98ZM30.38,3.1l-.06,1.66,1.47-.78-1.41-.87ZM28.53,5.88l-1.52-.66.18,1.65,1.34-.99ZM30.12,4.86l-1.47-.77.06,1.66,1.41-.89ZM34.02,1.49l-.31,1.63,1.57-.56-1.26-1.07ZM17.66,24.92l-1.46.78,1.4.89.06-1.67ZM41.82,0l-.78,1.46,1.67-.07-.89-1.4ZM27.02,7.01l-1.57-.54.3,1.63,1.26-1.09ZM37.87.46l-.55,1.56,1.64-.31-1.09-1.25ZM35.93.9l-.43,1.6,1.61-.44-1.18-1.16ZM25.6,8.25l-1.6-.42.42,1.6,1.18-1.18ZM18.69,19.33l-1.6.43,1.17,1.18.43-1.61ZM19.31,17.55l-1.63.31,1.08,1.26.55-1.57ZM18.21,21.17l-1.56.55,1.25,1.09.31-1.64ZM17.87,23.04l-1.52.67,1.33.99.19-1.66ZM20.06,15.82l-1.64.19.98,1.34.67-1.53ZM24.27,9.59l-1.63-.3.54,1.57,1.09-1.26ZM23.05,11.02l-1.65-.18.66,1.52.99-1.34ZM21.93,12.55l-1.65-.06.76,1.47.89-1.41ZM20.93,14.14l-1.65.07.87,1.41.78-1.48ZM39.84.15l-.67,1.52,1.66-.19-.99-1.33ZM25.71,45.29l-.31,1.63,1.57-.54-1.26-1.09ZM21.01,39.42l-.77,1.47,1.66-.05-.89-1.41ZM22.02,41.02l-.66,1.52,1.65-.18-.99-1.34ZM20.13,37.76l-.88,1.4,1.66.07-.78-1.48ZM24.38,43.96l-.43,1.6,1.6-.42-1.17-1.18ZM23.15,42.53l-.55,1.56,1.63-.29-1.08-1.27ZM18.25,32.43l-1.17,1.17,1.6.44-.43-1.61ZM17.89,30.58l-1.25,1.08,1.56.56-.31-1.64ZM17.68,28.7l-1.33.99,1.52.67-.19-1.66ZM18.74,34.25l-1.08,1.26,1.63.32-.55-1.58ZM17.6,26.82l-1.4.88,1.46.78-.06-1.67ZM19.37,36.03l-.98,1.33,1.64.19-.67-1.53ZM37.82,52.97l1.09-1.25-1.64-.31.55,1.56ZM35.86,52.51l1.18-1.16-1.61-.44.43,1.6ZM39.8,53.27l.99-1.32-1.66-.19.66,1.52ZM26.96,48.17l1.53-.65-1.34-1-.19,1.65ZM41.8,53.43l.9-1.4-1.67-.07.77,1.47ZM32.11,51.18l1.34-.97-1.52-.67.18,1.65ZM30.32,50.3l1.41-.87-1.47-.79.06,1.66ZM28.6,49.3l1.47-.76-1.41-.89-.07,1.66ZM33.96,51.92l1.26-1.07-1.57-.56.31,1.63Z"/>
    </g>
    <path class="cls-1" d="M42.92,39.26c6.93,0,12.54-5.62,12.54-12.54s-5.62-12.55-12.54-12.55-12.54,5.62-12.54,12.55,5.62,12.54,12.54,12.54Z"/>
    <g>
      <path class="cls-2" d="M49.95,17.47l-1.15,1.63c-.71-.19-1.06-.72-.74-1.41.12-.32.23-.63.14-.99-.86.16-1.54,1.53-2.48.85.27-.7.33-1.62,1.01-2.02.75-.18,1.38.42,2.06.62.47.39,1.32.56,1.16,1.32Z"/>
      <path class="cls-2" d="M53.1,20.18c.02,1.04-1.24.97-1.84,1.48-1.06-.72.42-1.56.46-2.38l-.15-.1c-.7.15-1.65,1.15-2.2.28.34-.62.77-1.69,1.7-1.64.76.73,1.59,1.4,2.03,2.34Z"/>
      <path class="cls-2" d="M45.12,17.37c-.44-.02-1.17,0-1.05-.74.15-.36-.15-.73-.17-1.08l-.26.07c-.62.44-.71,1.79-1.7,1.63-.18-.93-.44-2,.32-2.62,1.12-.15,2.18-.02,3.21.29.76.77-.25,1.64-.36,2.45Z"/>
      <path class="cls-2" d="M54.13,22.15c.04.99,1.15,2.43-.04,3.16l-1.61.25c-.25-.25-.1-.63-.24-.97.37-.57,1.16-.81,1.3-1.53-.63-.14-1.76.48-1.89-.42-.38-.67.45-.73.77-.95.59-.31,1.55-.35,1.72.46Z"/>
      <path class="cls-2" d="M41.28,17.34c-.17.07-.33.18-.56.21-.47-.39-.79-.96-1.27-1.28-.47.68.42,2.23-1.05,2.3-.41-.63-1-1.19-.95-2.01.56-1.14,1.98-1.42,3.11-1.64.91.44.58,1.61.71,2.42Z"/>
      <path class="cls-2" d="M54.89,28.42c-.16.62-.14,1.42-.8,1.79-.78.13-1.4-.34-2.11-.5-.16-.4.15-.83.21-1.25.66-.14,1.23-.41,1.84-.61-.36-.42-1.04-.62-1.56-.93-.05-.24.12-.46,0-.73.71-.08,1.79-.67,2.34.14.13.63.13,1.41.09,2.08Z"/>
      <path class="cls-2" d="M37.87,18.94c-.65.9-1.58-.3-2.41-.27-.09.78,1.1,1.74.13,2.25-.68-.53-1.54-.97-1.52-1.92.81-.74,1.56-2.26,2.74-1.77l1.05,1.71Z"/>
      <path class="cls-2" d="M52.88,33.53c-.22.43-.77.67-1.2.51-.41-.44-1.11-.66-1.43-1.14.39-1.07,1.52-.3,2.31-.54-.22-.54-.77-.86-1.11-1.3.11-.26.14-.54.35-.77l1.86.7c.7.87-.52,1.68-.78,2.53Z"/>
      <path class="cls-2" d="M35.17,21.42c-.3,1.43-1.53.27-2.34.59.09.78,1.73,1.18.79,2.11-.62-.29-1.58-.34-1.84-1.14.26-.91.71-1.88,1.31-2.67.92-.4,1.46.68,2.08,1.11Z"/>
      <path class="cls-2" d="M51.3,35.14c-.58.8-1.3,1.35-2.04,1.93-1.11.27-1.05-1.07-1.54-1.66-.08-.2.13-.43.29-.54.66-.08,1.19.62,1.83.62-.07-.59-.88-1.56-.09-2.08.68.48,1.61.9,1.55,1.73Z"/>
      <path class="cls-2" d="M33.17,25.27c-.53.35-1.23.46-1.73.89.51.37,1.2.42,1.77.94.05.34-.1.71-.46.7-.53.08-1.32.46-1.71-.15-.25-1-.06-2.03.06-3,.14-.36.48-.56.81-.55.41.39,1.92.29,1.25,1.18Z"/>
      <path class="cls-2" d="M47.4,38.05c-1.05.28-2.43,1.1-3.34.23-.19-.64-.22-1.47-.05-2.14.99-.41,1.32.8,1.81,1.33l.18-.04c.27-.7.05-1.92,1.04-2.06.15.88,1.55,1.91.37,2.68Z"/>
      <path class="cls-2" d="M33.46,29.28c-.37.33-.87.55-1.2.96.58.59,2.07-.18,2.08,1.11-.63.23-1.14,1.06-1.92.64-.53-.76-.72-1.76-1.12-2.62.09-.33.22-.52.5-.76l1.52-.3c-.02.31.1.64.15.97Z"/>
      <path class="cls-2" d="M42.95,38.55c-.95.07-2.16.13-2.88-.58-.19-.73.38-1.32.58-2,.93,0,.73,1.2,1.14,1.67.69-.36.59-1.51,1.45-1.44.14.72.35,1.73-.29,2.34Z"/>
      <path class="cls-2" d="M34.27,33.86c-.04.25.2.16.32.21.64,0,1.52-.91,2.02,0-.5.49-.75,1.29-1.46,1.46-.79-.54-1.43-1.41-2.06-2.15-.13-.63.49-.8.89-1.14.39-.41.81-.23.97.27l-.68,1.37Z"/>
      <path class="cls-2" d="M40.01,35.91c-.37.66-.29,1.71-1.22,1.88l-.43.02c-.75-.61-2.42-.95-2.23-2.12l.87-1.24.87.56c-.07.53-.4,1.07-.19,1.53.81-.13,1.47-1.33,2.34-.64Z"/>
    </g>
    <g>
      <path class="cls-2" d="M41.71,17.89c.63-.31,1.62-.09,2.44-.1l-1.47.37-.97-.27Z"/>
      <path class="cls-2" d="M44.92,19.62c-1.66.97-3.53.8-5.42,1.44l-.11-.07c1.52-1.36,3.27-2.44,5.47-2.73.14.42.1.91.05,1.36Z"/>
      <path class="cls-2" d="M41.85,18.56c-.76.8-1.74.31-2.63.3.73-.67,1.78-.62,2.63-.3Z"/>
      <path class="cls-2" d="M45.74,22.8c1.25.87,2.27,1.81,3.04,3.45.15.45-.05.69-.41.73-1.24.24-1.49.2-2.79.26-.1,1.05-.14,3.3-.14,3.3-.68.22-2.77-.37-3.57-.75-.14-.06-.46-.27-.61-.13-.2.17-.06.3.05.45,1.41.86,2.24.91,4.14,1.12-.25,2,.05,2.16-.12,4.18-2.38.1-4.93-1.31-6.3-3.32-1.65-1.91-1.87-4.71-1.9-7.16.14-1.09.79-2.32,1.59-3.09,1.58.82,3.3,1.16,4.85,2.16.18,0,.33-.09.4-.25-.44-.67.61-.75.61-1.41.06-.47.04-1.27-.45-1.53l-.11-.07.82-.25c.15.7-.27,1.84.89,2.29Z"/>
      <path class="cls-2" d="M43.93,22.35c-.23.49-.71.59-1.16.48-.39-.19-.72-.47-.63-.92.25-.38.51-.96,1.06-.75.58-.01.9.65.73,1.2Z"/>
      <path class="cls-2" d="M40.17,19.63c-.73,1.03-1.86.78-2.92.69l1.05-.97c.64,0,1.23.2,1.87.28Z"/>
      <path class="cls-2" d="M41.6,22.42l-1.9-.78,2.23-.51c-.32.4-.5.82-.33,1.29Z"/>
      <path class="cls-2" d="M38.54,21.1c-.3.37-.66.69-.89,1.14l-2-.13c.1-.48.69-.88,1.04-1.28.61.13,1.25.12,1.84.27Z"/>
      <path class="cls-2" d="M36.71,24.24l-2.33-.07c.16-.62.57-1.1.95-1.55l1.89.2c-.13.43-.35.95-.5,1.42Z"/>
      <path class="cls-2" d="M36.62,26.19c-.92.03-1.8.22-2.71.04-.12-.5.09-1.06.29-1.56.77.17,1.61.02,2.4.2l.02,1.31Z"/>
      <path class="cls-2" d="M36.82,28.28c-.91.1-2.03.3-2.89.14l-.1-1.51c.91-.01,1.93-.16,2.85.05l.13,1.32Z"/>
      <path class="cls-2" d="M37.37,30.35l-2.56.14c-.38-.25-.43-.91-.74-1.32.79-.3,1.82-.17,2.71-.28.35.38.38,1.03.58,1.46Z"/>
      <path class="cls-2" d="M38.32,32c-.68.22-1.54.2-2.38.32-.55-.27-.66-.82-.98-1.27l2.64-.18.71,1.13Z"/>
      <path class="cls-2" d="M39.33,33.44c-1.01-.11-2.3.76-2.98-.55.99-.14,2.83-.93,2.98.55Z"/>
      <path class="cls-2" d="M40.32,35.25c1.02-.78,1.91.34,2.88.43-.97-.03-1.95-.1-2.88-.43Z"/>
      <path class="cls-2" d="M40.68,34.56c-.78.13-1.53.69-2.14-.04l-.59-.39c.89-.02,2.17-.79,2.74.42Z"/>
      <path class="cls-2" d="M47.41,18.84c-.37-.19-.76-.37-1.15-.52-.24-.02-.48,0-.72.03,0,.2,0,.4,0,.59.59.14,1.25-.08,1.87-.11Z"/>
      <path class="cls-2" d="M49.53,20.3c-.39-.36-.82-.68-1.27-.97-.61.04-1.81.16-2.76.27-.02.12-.04.25-.06.37.06.16.07.34.06.52.94.07,3.31-.13,4.02-.19Z"/>
      <path class="cls-2" d="M50.05,20.83c-.65.08-3.11.1-4.6.16-.06.46-.09.91.32,1.21l5.23-.11c-.27-.46-.59-.88-.95-1.27Z"/>
      <path class="cls-2" d="M51.29,22.61l-4.65.16c.59.42,1.12.89,1.58,1.43l3.62-.04c-.12-.55-.31-1.07-.55-1.56Z"/>
      <path class="cls-2" d="M51.98,26.29l.03-.74c0-.28-.03-.56-.07-.83-.71.05-2.05.05-3.28.05.26.37.49.77.7,1.22.03.09.06.19.07.3.96.02,1.9.02,2.55,0Z"/>
      <path class="cls-2" d="M49.01,27.31c-1.31.57-1.56.31-2.94.44,0,.2.01.39.01.58,1.26.08,4.21.2,5.67.15.06-.24.11-.49.16-.73l.04-.85c-.63-.01-1.56-.03-2.53-.04-.05.22-.17.4-.41.45Z"/>
      <path class="cls-2" d="M46.05,30.38l5.01.11c.21-.47.39-.94.54-1.43-1.43-.12-4.3-.08-5.51-.14,0,.52-.02,1-.04,1.46Z"/>
      <path class="cls-2" d="M45.96,32.16c1.38.05,3.16.08,4.05.13.29-.39.55-.81.77-1.25l-4.76-.13c-.02.42-.04.83-.06,1.25Z"/>
      <path class="cls-2" d="M46.03,32.82s-.06.03-.09.05c0,.24,0,.48,0,.73.76.02,1.95.2,2.88.04.27-.25.53-.51.77-.8-1.03-.11-3.01-.27-3.55-.02Z"/>
      <path class="cls-2" d="M45.95,34.35c0,.14.01.28.02.43.29.06.57.14.84.17.5-.22.97-.49,1.41-.82-.75-.08-1.68-.41-2.26.22Z"/>
    </g>
    <g>
      <path class="cls-1" d="M49.17,17.5c-.05.17-.16.11-.29.11-.12-.05-.11-.16-.14-.24.07-.34.65-.12.43.13Z"/>
      <path class="cls-1" d="M51.06,18.8c-.05.12-.15.18-.27.19-.11-.07-.22-.17-.16-.31.04-.15.22-.19.31-.16.02.11.22.17.12.29Z"/>
      <path class="cls-1" d="M47.26,16.41c-.07.2-.22.25-.38.17,0-.09-.09-.18-.05-.24.05-.3.49-.19.43.07Z"/>
      <path class="cls-1" d="M52.43,20.35c-.14.12-.42.14-.46-.09-.04-.17.21-.32.34-.29.15.1.16.22.12.38Z"/>
      <path class="cls-1" d="M44.97,15.86c-.07.11-.14.18-.27.19-.13-.08-.27-.14-.25-.31.12-.19.53-.17.52.13Z"/>
      <path class="cls-1" d="M42.91,15.45c-.1.15-.22.16-.37.11-.08-.02-.07-.13-.08-.2.03-.37.48-.14.46.09Z"/>
      <path class="cls-1" d="M53.29,22.35c-.07.2-.22.25-.38.17-.08-.05-.13-.17-.07-.26.09-.09.13-.25.27-.19.11.07.18.14.18.27Z"/>
      <path class="cls-1" d="M53.71,24.49c-.06.14-.19.3-.35.22-.02-.1-.1-.22-.12-.28.06-.14.21-.19.33-.15.11.01.1.13.14.21Z"/>
      <path class="cls-1" d="M40.4,15.98c-.1.02-.16.11-.29.12-.2-.07-.13-.17-.12-.28.11-.26.57-.08.4.17Z"/>
      <path class="cls-1" d="M54.28,26.97c-.06.23-.24.14-.38.12-.16-.13-.12-.47.16-.47.13.08.3.19.22.35Z"/>
      <path class="cls-1" d="M38.54,16.94c-.14.03-.31.1-.39-.04,0-.13.09-.42.26-.31.21.05.16.22.13.36Z"/>
      <path class="cls-1" d="M53.84,29.31l-.12.19c-.2.02-.44-.2-.26-.38.07-.2.56-.12.39.19Z"/>
      <path class="cls-1" d="M36.51,18.08c-.1.15-.22.16-.38.12-.08-.02-.07-.13-.08-.2.12-.22.47-.21.46.09Z"/>
      <path class="cls-1" d="M42.59,24.27c-.04.15-.28.15-.38.12-.02-.11-.23-.21-.07-.31.04-.15.19-.2.31-.16.15.04.16.26.13.36Z"/>
      <path class="cls-1" d="M35.05,19.45c-.1.02-.18.18-.29.08-.06-.04-.23-.12-.12-.23.05-.27.51-.18.41.15Z"/>
      <path class="cls-1" d="M42.87,24.96l-.32-.21c.01-.2.23-.45.43-.29.14.15.09.42-.11.5Z"/>
      <path class="cls-1" d="M41.84,24.08c-.1.2-.44.07-.5-.11-.08-.2.2-.21.28-.33.2.07.28.27.22.44Z"/>
      <path class="cls-1" d="M53.22,31.82c-.14.18-.26.04-.41-.06-.12-.14.05-.39.24-.36.19.03.2.29.18.42Z"/>
      <path class="cls-1" d="M43.35,25.42c-.04.15-.19.21-.31.16-.15-.04-.15-.28-.12-.38.12-.28.59-.04.43.22Z"/>
      <path class="cls-1" d="M41,23.95c-.05.17-.22.16-.36.22-.26-.14-.15-.46.07-.56.19.03.27.14.29.34Z"/>
      <path class="cls-1" d="M43.38,26.17c-.11.2-.42.33-.53.02-.01-.13.09-.37.3-.32.11.07.25.13.23.3Z"/>
      <path class="cls-1" d="M40.09,24.24c-.04.16-.28.15-.38.12-.09-.06-.06-.19-.09-.27.06-.32.75-.23.47.16Z"/>
      <path class="cls-1" d="M39.41,24.58c-.04.15-.19.21-.31.16-.11-.01-.1-.12-.14-.21.08-.4.6-.24.45.05Z"/>
      <path class="cls-1" d="M33.69,21.31l-.34.05c-.13-.17.05-.45.26-.4.09.15.09.18.08.35Z"/>
      <path class="cls-1" d="M52.1,33.32c-.08.13-.19.3-.35.22-.23-.15-.18-.42.02-.5.12,0,.38.07.33.28Z"/>
      <path class="cls-1" d="M38.89,25.2c-.04.15-.2.08-.33.14-.19-.12-.21-.41.04-.48.16-.02.39.14.29.34Z"/>
      <path class="cls-1" d="M42.72,27.82c-.13.07-.23.21-.36.13-.14-.06-.29-.19-.22-.35.17-.25.82-.16.58.22Z"/>
      <path class="cls-1" d="M43.14,27.02c-.13.07-.23.21-.36.13-.14-.06-.3-.19-.22-.35.17-.25.82-.16.58.22Z"/>
      <path class="cls-1" d="M38.38,26.07c-.14-.12-.45-.14-.26-.38.23-.39.69.18.26.38Z"/>
      <path class="cls-1" d="M42.18,28.33c-.07.25-.28.21-.46.15-.12-.23.06-.5.3-.47.15.04.21.19.16.31Z"/>
      <path class="cls-1" d="M38.4,26.6c-.04.15-.2.17-.31.25-.11-.07-.18-.15-.18-.27.04-.34.54-.28.5.02Z"/>
      <path class="cls-1" d="M32.75,23.07c-.05.12-.14.18-.27.19-.15-.1-.16-.22-.12-.38.12-.19.46.03.39.19Z"/>
      <path class="cls-1" d="M41.39,28.76c-.05.12-.12.19-.25.2-.13-.08-.28-.12-.26-.29.1-.39.61-.2.51.09Z"/>
      <path class="cls-1" d="M50.74,34.95c-.06.14-.22.19-.34.14-.15-.13-.02-.38.15-.42.07.08.28.12.19.27Z"/>
      <path class="cls-1" d="M40.61,28.85c-.07.11-.11.26-.28.24-.13-.08-.2-.19-.22-.35.08-.4.67-.2.5.11Z"/>
      <path class="cls-1" d="M38.58,27.44c-.03.19-.12.28-.34.29-.15-.04-.16-.26-.12-.38l.19-.15.27.23Z"/>
      <path class="cls-1" d="M39.76,28.86c-.1.02-.16.11-.29.08-.19-.03-.2-.25-.17-.38.19-.33.69,0,.47.3Z"/>
      <path class="cls-1" d="M38.96,28.19c-.07.11-.13.25-.3.23-.27-.09-.15-.28-.1-.49.16-.11.41.06.4.26Z"/>
      <path class="cls-1" d="M32.07,25.01c-.13.06-.21.37-.4.19-.11-.19-.03-.47.21-.46.11.07.18.14.19.27Z"/>
      <path class="cls-1" d="M49.21,36.28c-.03.1-.15.18-.27.18-.14-.06-.19-.21-.14-.33.08-.22.45-.1.41.15Z"/>
      <path class="cls-1" d="M31.91,27.37c-.05.17-.16.11-.27.09-.15-.13-.12-.41.11-.41.11.07.35.16.16.31Z"/>
      <path class="cls-1" d="M47.1,37.32c-.08-.02-.13.06-.16.11-.15.05-.3-.14-.24-.28.11-.35.54-.1.4.17Z"/>
      <path class="cls-1" d="M32.36,29.32c-.05.12-.12.19-.25.2-.12-.05-.17-.15-.19-.27.05-.3.49-.19.44.07Z"/>
      <path class="cls-1" d="M44.88,37.82c-.1-.03-.31.07-.32-.15-.02-.2.21-.32.37-.24.11.1.08.29-.05.39Z"/>
      <path class="cls-1" d="M33.07,31.23c-.01.11-.14.12-.24.14l-.19-.12.21-.32c.11.07.25.13.23.3Z"/>
      <path class="cls-1" d="M42.83,37.79c-.08.07-.14.3-.27.18-.15-.04-.2-.19-.16-.31.08-.22.47-.12.43.13Z"/>
      <path class="cls-1" d="M34.09,33.17c-.03.13-.14.12-.24.14-.11-.1-.28-.36,0-.42.15-.05.3.14.24.28Z"/>
      <path class="cls-1" d="M41.03,37.55c-.05.12-.15.18-.27.19-.12-.05-.19-.12-.2-.25.07-.29.49-.2.47.06Z"/>
      <path class="cls-1" d="M35.49,34.59c-.01.11-.16.11-.24.14-.11-.07-.18-.14-.18-.27.04-.3.58-.16.43.13Z"/>
      <path class="cls-1" d="M38.82,36.91c-.06.08-.14.21-.24.14-.11-.07-.18-.14-.19-.27.12-.23.51-.15.43.13Z"/>
      <path class="cls-1" d="M37.13,35.96c-.1.11-.36.28-.44-.02-.02-.1.1-.29.26-.25.12.05.18.15.18.27Z"/>
    </g>
    <path class="cls-1" d="M28.48,26.71c0,7.97,6.48,14.45,14.44,14.45s14.45-6.48,14.45-14.45-6.48-14.45-14.45-14.45-14.44,6.48-14.44,14.45ZM29.52,26.71c0-7.39,6.01-13.4,13.4-13.4s13.4,6.01,13.4,13.4-6.01,13.4-13.4,13.4-13.4-6.01-13.4-13.4Z"/>
    <g>
      <g>
        <path class="cls-1" d="M55.53,45.43l-2.72-4.1-1.41.94s-.29.16-.17.34c.11.16.32.06.32.06,0,0,.09-.04.19.12l1.97,2.97s.09.18-.03.35c0,0-.14.17-.06.29.12.17.3.08.38.03l1.52-1.01Z"/>
        <path class="cls-1" d="M54.97,41.3l-.64-.97-1.27.85.19.28s.38-.23.82-.14c.45.09.72.25.72.25,0,0,.13.11.23-.02.08-.09-.05-.25-.05-.25Z"/>
        <path class="cls-1" d="M56.41,43.46l.64.97-1.27.85-.19-.28s.36-.26.45-.71c.09-.44.05-.77.05-.77,0,0-.05-.16.11-.21.11-.04.21.15.21.15Z"/>
        <path class="cls-1" d="M54.26,42.98s.2-.33.09-.75c-.12-.42.19-.35.24-.27l.93,1.4c.05.07,0,.39-.34.11-.35-.27-.73-.21-.73-.21l-.18-.27Z"/>
      </g>
      <g>
        <path class="cls-1" d="M34.64,47.31s-.39-.14-.24-.53l1.23-3.12c.15-.39.54-.23.54-.23l.14-.35s-2.06-.89-2.99,1.47c-.93,2.36,1.19,3.11,1.19,3.11l.14-.35Z"/>
        <path class="cls-1" d="M34.92,47.42s.38.16.54-.23l1.23-3.12c.15-.39-.24-.53-.24-.53l.13-.35s2.12.75,1.19,3.11c-.93,2.36-2.99,1.47-2.99,1.47l.14-.35Z"/>
      </g>
      <g>
        <path class="cls-1" d="M29.97,44.75s-.35-.24-.1-.58l1.97-2.71c.25-.34.58-.08.58-.08l.22-.3s-1.78-1.39-3.27.65c-1.49,2.05.38,3.32.38,3.32l.22-.3Z"/>
        <path class="cls-1" d="M32.91,43.34c.4-1.08-.26-1.79-.26-1.79l.22-.3s.27.2.47.58c0,0,.16.38.35.3.12-.05.25-.1.35-.04.09.07.1.2.05.27-.06.08-.89,1.23-.89,1.23,0,0-.12.16-.26.05-.13-.1-.02-.3-.02-.3Z"/>
        <path class="cls-1" d="M31.91,45.27c-1.06.59-1.93-.05-1.93-.05l.22-.3s.72.47,1.51.04c0,0,.21-.13.31.05.08.14-.12.26-.12.26Z"/>
      </g>
      <g>
        <path class="cls-1" d="M40.03,49.1c.09.01.3.02.34-.19.02-.15-.18-.24-.18-.24-.19-.1-.18-.3-.18-.3l.59-4.15-1.69-.24s-.32-.08-.36.15c-.03.19.2.26.2.26,0,0,.09.03.06.22l-.5,3.53s-.05.19-.26.24c0,0-.22.04-.24.19-.03.21.18.26.27.27l1.94.27Z"/>
        <path class="cls-1" d="M42.23,45.62l.16-1.15-1.52-.21-.05.34s.44.08.71.44c.27.36.37.67.37.67,0,0,.02.16.19.14.12-.02.13-.23.13-.23Z"/>
        <path class="cls-1" d="M40.58,46.4s.37-.11.57-.51c.19-.4.37-.13.36-.05l-.23,1.66c-.01.08-.26.29-.33-.14-.08-.44-.4-.64-.4-.64l.04-.32Z"/>
      </g>
      <g>
        <path class="cls-1" d="M45.47,49.14c.09,0,.3-.06.28-.26-.01-.15-.23-.19-.23-.19-.21-.05-.25-.25-.25-.25l-.42-4.17-1.7.17s-.33,0-.31.23c.02.19.26.2.26.2,0,0,.09,0,.12.2l.36,3.54s0,.2-.19.29c0,0-.2.09-.19.24.02.21.23.21.33.2l1.95-.2Z"/>
        <path class="cls-1" d="M46.78,45.23l-.12-1.16-1.52.15.03.34s.45-.03.8.26c.35.29.52.56.52.56,0,0,.06.15.22.09.11-.04.07-.25.07-.25Z"/>
        <path class="cls-1" d="M45.36,46.39s.33-.2.43-.63c.09-.43.33-.22.34-.13l.17,1.67c0,.09-.18.34-.36-.06-.18-.4-.54-.53-.54-.53l-.03-.32Z"/>
      </g>
      <g>
        <path class="cls-1" d="M50.69,47.9l-1.66-4.62-1.6.57s-.32.08-.24.3c.06.18.3.13.3.13,0,0,.09-.02.16.17l1.21,3.35s.05.19-.11.33c0,0-.18.13-.12.27.07.2.28.15.37.12l1.72-.62Z"/>
        <path class="cls-1" d="M51.13,43.75l-.39-1.09-1.44.52.12.32s.43-.13.84.06c.41.2.64.42.64.42,0,0,.1.13.23.04.09-.07,0-.26,0-.26Z"/>
        <path class="cls-1" d="M52.01,46.2l.39,1.09-1.44.52-.12-.32s.42-.17.61-.58c.19-.41.23-.73.23-.73,0,0-.01-.17.16-.18.12,0,.17.2.17.2Z"/>
        <path class="cls-1" d="M50.04,45.21s.28-.27.26-.71.27-.29.3-.21l.57,1.58c.03.08-.09.38-.36.03-.27-.35-.66-.38-.66-.38l-.11-.3Z"/>
      </g>
    </g>
    <g>
      <path class="cls-1" d="M27.99,17.37c.05-.09.13-.29-.06-.4-.14-.08-.3.08-.3.08-.17.14-.36.06-.36.06l-3.28-1.79c-.18-.1-.15-.19-.15-.19,0,0,.08-.24-.09-.33-.21-.11-.34.21-.34.21l-.86,1.57s-.19.29.01.4c.17.1.33-.1.33-.1,0,0,.06-.08.24.02l3.28,1.79s.17.12.14.34c0,0-.04.23.09.3.19.11.32-.07.37-.16l.98-1.8Z"/>
      <g>
        <path class="cls-1" d="M26.01,21.96l-4.96-1.44-.5,1.71s-.13.32.1.39c.19.06.3-.17.3-.17,0,0,.04-.09.24-.03l3.59,1.05s.19.08.21.3c0,0,0,.23.16.28.21.06.3-.14.33-.24l.54-1.84Z"/>
        <path class="cls-1" d="M25.72,21.56s.13-.42-.29-.54l-3.38-.99c-.42-.12-.53.3-.53.3l-.38-.11s.58-2.3,3.14-1.55c2.56.74,1.82,3,1.82,3l-.38-.11Z"/>
      </g>
      <g>
        <path class="cls-1" d="M55.64,14.56l3.7-3.6-1.24-1.28s-.22-.27-.39-.11c-.14.14,0,.34,0,.34,0,0,.06.08-.09.22l-2.68,2.61s-.16.13-.37.03c0,0-.2-.11-.31,0-.16.15-.02.33.04.4l1.33,1.37Z"/>
        <path class="cls-1" d="M59.8,13.18l.88-.85-1.12-1.15-.26.25s.31.35.3.82c0,.48-.12.8-.12.8,0,0-.08.15.07.24.11.06.25-.1.25-.1Z"/>
        <path class="cls-1" d="M57.85,15.07l-.88.85-1.12-1.15.26-.25s.34.32.81.33c.48,0,.8-.1.8-.1,0,0,.15-.08.24.07.06.11-.11.25-.11.25Z"/>
        <path class="cls-1" d="M57.92,12.77s.38.15.79-.06c.42-.2.39.13.33.19l-1.26,1.23c-.06.06-.4.08-.18-.34.22-.41.08-.79.08-.79l.24-.24Z"/>
      </g>
      <g>
        <path class="cls-1" d="M38.76,9.62l-1.27-5-1.73.44s-.34.05-.29.28c.05.19.3.17.3.17,0,0,.1,0,.15.19l.92,3.62s.03.21-.15.34c0,0-.2.12-.16.27.05.21.27.19.37.16l1.85-.47Z"/>
        <path class="cls-1" d="M39.64,5.33l-.3-1.18-1.56.4.09.35s.46-.1.87.15c.41.25.63.5.63.5,0,0,.09.15.24.06.1-.06.03-.27.03-.27Z"/>
        <path class="cls-1" d="M40.31,7.95l.3,1.18-1.56.4-.09-.35s.45-.13.69-.54c.24-.41.31-.74.31-.74,0,0,0-.17.18-.17.12,0,.16.22.16.22Z"/>
        <path class="cls-1" d="M38.35,6.74s.32-.25.35-.72c.03-.46.31-.28.33-.19l.43,1.71c.02.09-.13.38-.38,0-.25-.39-.65-.46-.65-.46l-.08-.33Z"/>
      </g>
      <g>
        <path class="cls-1" d="M60.87,26.16s-.02-.44.42-.45l3.52-.07c.44,0,.44.43.44.43h.39s.03-2.36-2.63-2.31c-2.66.06-2.53,2.41-2.53,2.41h.39Z"/>
        <path class="cls-1" d="M60.88,26.47s0,.44.44.43l3.52-.07c.44,0,.42-.45.42-.45h.39s.13,2.34-2.53,2.4c-2.66.06-2.63-2.3-2.63-2.3h.39Z"/>
      </g>
      <g>
        <path class="cls-1" d="M47.56,9.75c.1.03.32.06.37-.15.04-.15-.15-.28-.15-.28-.18-.13-.15-.34-.15-.34l1.18-4.24-1.73-.48s-.33-.12-.39.1c-.05.19.18.29.18.29,0,0,.09.04.04.24l-1,3.6s-.08.2-.3.22c0,0-.23,0-.27.16-.06.21.15.3.24.32l1.98.55Z"/>
        <path class="cls-1" d="M48.97,7.89l-.67-.18.1-.38s.42.13.54-.3l.36-1.31c.12-.42-.31-.53-.31-.53l.1-.38.66.18s1.64.33,1.21,1.89c-.43,1.56-2.01,1-2.01,1Z"/>
      </g>
      <g>
        <path class="cls-1" d="M44.56,5.59c-.32-1.17-1.31-1.24-1.31-1.24v-.39s.36,0,.77.21c0,0,.36.23.48.05.08-.12.15-.24.27-.24.12,0,.21.11.21.2,0,.11-.02,1.46-.02,1.46,0,0,0,.21-.19.2-.17,0-.2-.24-.2-.24Z"/>
        <path class="cls-1" d="M41.61,7.67c.39,1.15,1.29,1.06,1.29,1.06v.39s-.39.02-.78-.19c0,0-.25-.15-.42-.02-.11.08-.2.2-.32.2-.12,0-.21-.11-.21-.2,0-.11.01-1.32.01-1.32,0,0,0-.16.2-.16.17,0,.22.24.22.24Z"/>
        <path class="cls-1" d="M43.2,8.72c.2-.02.37-.07.59-.2.24-.14.36-.33.37-.59,0-.34-.27-.57-.8-.7l-.58-.13c-.22-.05-.43-.1-.6-.16-.24-.08-.45-.19-.62-.33-.16-.13-.29-.3-.37-.49-.08-.19-.12-.39-.11-.6,0-.46.17-.85.51-1.15.33-.29.85-.43,1.37-.44h0v.4c-.28,0-.61.06-.79.18-.18.12-.27.27-.27.46,0,.16.07.27.2.33.14.06.31.11.51.15l.61.12c.55.12.95.32,1.23.55.37.29.76.77.76,1.28,0,.21-.02.4-.09.58-.14.36-.41.64-.75.84-.34.2-.79.29-1.17.29v-.4Z"/>
      </g>
      <g>
        <path class="cls-1" d="M63.64,22.4c1.03-.63.83-1.6.83-1.6l.38-.1s.1.34,0,.79c0,0-.12.41.09.47.13.04.28.08.31.2.03.12-.04.23-.13.25-.1.03-1.41.39-1.41.39,0,0-.2.06-.25-.13-.04-.16.18-.26.18-.26Z"/>
        <path class="cls-1" d="M60.83,20.14c-.99.7-.66,1.53-.66,1.53l-.38.11s-.12-.36-.03-.8c0,0,.08-.28-.1-.41-.11-.09-.25-.14-.28-.25-.03-.12.04-.23.13-.25.1-.03,1.27-.35,1.27-.35,0,0,.15-.04.21.15.05.17-.17.28-.17.28Z"/>
        <path class="cls-1" d="M60.26,21.97c.07.19.17.34.35.51.2.19.42.25.66.19.32-.1.47-.42.45-.97l-.03-.6c-.02-.23-.02-.44-.02-.62,0-.26.05-.49.14-.68.08-.2.21-.36.36-.49.16-.13.34-.22.54-.27.45-.13.87-.07,1.25.17.37.23.65.69.8,1.19h0l-.39.11c-.08-.27-.23-.56-.4-.71-.16-.14-.33-.18-.51-.13-.15.05-.24.14-.26.29-.02.15-.02.33,0,.53,0,0,.06.62.06.62.04.57-.05,1-.18,1.34-.18.43-.53.95-1.01,1.08-.2.06-.39.09-.59.07-.39-.04-.73-.21-1.01-.48-.29-.27-.5-.68-.6-1.04l.39-.11Z"/>
      </g>
      <g>
        <path class="cls-1" d="M62.05,17.62c.86-.86.42-1.75.42-1.75l.34-.19s.17.31.2.77c0,0-.02.43.2.44.14,0,.29.01.35.12.06.11.01.23-.07.28-.09.05-1.27.71-1.27.71,0,0-.18.1-.27-.06-.08-.15.11-.3.11-.3Z"/>
        <path class="cls-1" d="M58.78,16.1c-.8.91-.28,1.65-.28,1.65l-.34.19s-.21-.32-.22-.77c0,0,0-.29-.19-.38-.13-.06-.27-.07-.33-.18-.06-.11-.01-.23.07-.28.09-.05,1.15-.65,1.15-.65,0,0,.14-.08.24.1.08.15-.1.31-.1.31Z"/>
        <path class="cls-1" d="M58.65,18.01c.12.17.24.29.47.41.24.14.46.15.69.03.29-.17.36-.52.21-1.05l-.17-.57c-.07-.22-.13-.42-.16-.6-.06-.25-.06-.49-.03-.7.03-.21.11-.4.24-.56.12-.16.28-.3.46-.4.4-.23.82-.28,1.25-.13.41.14.8.52,1.06.97h0l-.35.2c-.14-.24-.35-.49-.55-.59-.19-.1-.37-.1-.53,0-.14.08-.2.19-.19.34.01.15.06.32.13.51l.2.59c.17.54.19.99.14,1.34-.07.46-.29,1.05-.73,1.29-.18.1-.36.18-.55.21-.38.06-.76-.03-1.1-.23-.34-.19-.65-.54-.83-.87l.35-.2Z"/>
      </g>
      <g>
        <path class="cls-1" d="M51.59,11.39c.09.05.29.14.4-.05.08-.14-.08-.31-.08-.31-.14-.17-.06-.37-.06-.37l2.19-3.82-1.55-.89s-.29-.2-.4,0c-.1.17.1.33.1.33,0,0,.08.06-.02.24l-1.86,3.24s-.12.17-.35.13c0,0-.22-.05-.3.09-.11.19.07.32.16.37l1.78,1.02Z"/>
        <path class="cls-1" d="M53.94,11.97c-.02.21.05.28.05.28,0,0,.12.11.02.29-.12.21-.47-.03-.47-.03l-1-.58s-.31-.14-.2-.35c.09-.15.33-.08.33-.08,0,0,.17.04.2-.14,0,0,.03-1.52.03-1.62,0-.1-.09-.15-.09-.15l.2-.34s.37.23.59-.15l.67-1.18c.22-.38-.16-.59-.16-.59l.2-.34.6.34s1.51.72.7,2.13c-.53.93-1.32.83-1.79.67,0,0,.15.05.15.37l-.02,1.46Z"/>
      </g>
      <g>
        <path class="cls-1" d="M30.14,14.61c.06-.08.18-.26.01-.4-.12-.1-.31.02-.31.02-.19.11-.37,0-.37,0l-.93-.77-2.78-.6c-.17-.05-.11-.22-.11-.22,0,0,.11-.23-.03-.34-.18-.15-.38.13-.38.13l-1.14,1.37s-.24.24-.06.4c.14.11.3.01.3.01,0,0,.07-.04.27.02l2.78.6.93.77s.15.15.08.36c0,0-.09.21.03.31.17.14.33-.01.39-.09l1.3-1.57Z"/>
        <path class="cls-1" d="M26.76,10.6l-.33.39s-.24.24-.06.4c.14.11.34-.04.34-.04,0,0,.15-.1.23.06l.59,1.55.54.12-.81-2.06c-.09-.19-.07-.26-.07-.26,0,0,.07-.18-.07-.29-.18-.15-.38.13-.38.13Z"/>
      </g>
      <g>
        <path class="cls-1" d="M30.54,11.77l.85-.63-2.59-1.93-.11-.31,1.28-.95,3.68,2.74s.14.15.36.09c0,0,.22-.08.31.05.13.18-.03.33-.11.39l-1.64,1.22c-.08.06-.27.17-.4,0-.09-.13.04-.31.04-.31.2-.24.01-.37.01-.37l-.49-.36-.95.71-.24-.33Z"/>
        <path class="cls-1" d="M31,13.02c-.28.12-.35-.09-.35-.09l-1.02-2.77-.66-.49,1.3,3.54s.11.18-.01.37c0,0-.13.19-.04.31.13.18.32.07.4,0l.59-.44c.08-.06.24-.21.11-.39-.09-.13-.31-.05-.31-.05Z"/>
      </g>
      <g>
        <path class="cls-1" d="M25.36,26.5h-5.16v1.78s-.03.35.2.35c.2,0,.24-.25.24-.25,0,0,.02-.1.22-.1h3.74s.21.02.29.23c0,0,.07.22.23.22.22,0,.25-.22.25-.32v-1.92Z"/>
        <path class="cls-1" d="M21.41,24.59h-1.22v1.61h.36s.02-.47.36-.8c.34-.33.64-.48.64-.48,0,0,.17-.05.12-.22-.03-.12-.25-.1-.25-.1Z"/>
        <path class="cls-1" d="M24.14,24.59h1.22v1.61h-.36s-.02-.47-.36-.8c-.34-.33-.64-.48-.64-.48,0,0-.17-.05-.12-.22.03-.12.25-.1.25-.1Z"/>
        <path class="cls-1" d="M22.47,26.19s-.17-.37-.61-.51c-.44-.15-.19-.37-.1-.37h1.76c.09,0,.34.22-.1.37-.44.14-.61.51-.61.51h-.34Z"/>
      </g>
    </g>
  </g>
  <g>
    <path class="cls-1" d="M0,66.32v-7.99h6.38v1.91h-3.82v1.06h3.23v1.83h-3.23v1.24h3.97v1.94H0Z"/>
    <path class="cls-1" d="M7.74,66.32v-7.99h3.1c.79,0,1.37.03,1.76.1.39.07.72.19,1.01.35.55.32.97.78,1.25,1.37.28.59.42,1.31.42,2.17,0,.9-.17,1.67-.52,2.28-.34.62-.85,1.07-1.53,1.37-.26.12-.59.2-.98.25-.39.05-1.02.08-1.88.08h-2.63ZM10.3,64.3h.69c.64,0,1.08-.14,1.33-.43.25-.28.37-.79.37-1.53s-.13-1.23-.38-1.53c-.25-.3-.68-.45-1.29-.45h-.72v3.94Z"/>
    <path class="cls-1" d="M16.49,66.32v-7.99h2.62v7.99h-2.62Z"/>
    <path class="cls-1" d="M23.19,66.32v-2.96l-2.94-5.03h2.84l1.37,2.72,1.39-2.72h2.77l-2.87,5.03v2.96h-2.56Z"/>
    <path class="cls-1" d="M27.4,66.32l2.81-7.99h2.6l2.81,7.99h-2.54l-.3-1.06h-2.54l-.31,1.06h-2.52ZM30.7,63.59h1.61l-.8-2.77-.81,2.77Z"/>
    <path class="cls-1" d="M44.89,63.22h2.43c-.07,1.05-.44,1.87-1.11,2.45-.67.58-1.57.87-2.72.87-1.28,0-2.29-.38-3.02-1.12-.74-.75-1.1-1.78-1.1-3.08s.37-2.33,1.09-3.08c.73-.75,1.72-1.13,2.97-1.13,1.16,0,2.07.28,2.73.84.66.56,1.04,1.36,1.11,2.4h-2.46c-.04-.41-.17-.72-.4-.93-.23-.21-.55-.31-.96-.31-.5,0-.88.18-1.13.55-.25.37-.38.92-.38,1.66s.14,1.28.4,1.65c.27.37.66.56,1.18.56.4,0,.71-.12.95-.35.23-.23.37-.55.41-.97Z"/>
    <path class="cls-1" d="M48.06,62.33c0-1.3.37-2.33,1.11-3.08.74-.75,1.76-1.13,3.04-1.13s2.29.38,3.03,1.13c.74.75,1.11,1.78,1.11,3.08s-.37,2.32-1.11,3.08c-.74.75-1.75,1.13-3.03,1.13s-2.29-.38-3.04-1.13c-.74-.75-1.11-1.78-1.11-3.08ZM50.65,62.33c0,.75.13,1.31.38,1.67.25.35.65.53,1.18.53s.93-.18,1.18-.53c.25-.35.37-.91.37-1.67s-.12-1.32-.37-1.67c-.25-.35-.64-.53-1.18-.53s-.93.18-1.18.53c-.25.35-.38.91-.38,1.67Z"/>
    <path class="cls-1" d="M57.53,66.32v-7.99h6.04v2.01h-3.48v1.24h2.76v1.93h-2.76v2.81h-2.57Z"/>
    <path class="cls-1" d="M64.54,66.32v-7.99h6.04v2.01h-3.48v1.24h2.77v1.93h-2.77v2.81h-2.56Z"/>
    <path class="cls-1" d="M71.56,66.32v-7.99h6.39v1.91h-3.82v1.06h3.23v1.83h-3.23v1.24h3.97v1.94h-6.54Z"/>
    <path class="cls-1" d="M79.3,66.32v-7.99h6.38v1.91h-3.82v1.06h3.23v1.83h-3.23v1.24h3.97v1.94h-6.54Z"/>
  </g>
</svg>